<svg width="14" height="14" viewBox="0 0 14 14" fill="none" xmlns="http://www.w3.org/2000/svg">
<path d="M11.79 9.16477C11.87 8.21977 11.625 7.30477 12.295 6.63477L12.71 6.21977C13.2767 5.65174 13.5949 4.88213 13.5949 4.07977C13.5949 3.2774 13.2767 2.50779 12.71 1.93977L11.78 1.00977L11.11 1.67977C10.365 1.69977 9.625 1.99477 9.055 2.56477L8.95 2.66477C8.28117 3.33359 7.39745 3.74446 6.455 3.82477C5.205 3.92977 4.035 4.47477 3.145 5.36477C2.43997 6.06869 1.95134 6.95983 1.7369 7.93276C1.52247 8.90569 1.59121 9.91968 1.935 10.8548L1.595 11.1948L2.87 12.4698C3.35477 12.9549 3.9304 13.3398 4.56398 13.6023C5.19756 13.8649 5.87667 14.0001 6.5625 14.0001C7.24834 14.0001 7.92745 13.8649 8.56102 13.6023C9.1946 13.3398 9.77023 12.9549 10.255 12.4698C11.14 11.5848 11.685 10.4148 11.79 9.16477Z" fill="#44911B"/>
<path d="M9.33001 3.26929e-06C8.41001 3.26929e-06 7.54001 0.360003 6.89001 1.01L6.80001 1.105C6.32501 1.58 5.69001 1.875 5.01501 1.935C3.72001 2.045 2.50501 2.61 1.59001 3.525C1.08507 4.02773 0.684625 4.62541 0.411736 5.2836C0.138848 5.94179 -0.00108342 6.64748 6.31614e-06 7.36C6.31614e-06 8.81 0.565006 10.17 1.59001 11.195C2.61501 12.22 3.97501 12.785 5.42501 12.785C6.87501 12.785 8.23501 12.22 9.26001 11.195C10.175 10.28 10.745 9.06 10.855 7.77C10.9109 7.09531 11.2051 6.46254 11.685 5.985L11.78 5.89C12.101 5.57004 12.3555 5.18971 12.5289 4.77094C12.7022 4.35217 12.791 3.90323 12.79 3.45C12.79 2.53 12.43 1.66 11.78 1.01C11.1294 0.362008 10.2482 -0.0012572 9.33001 3.26929e-06Z" fill="#008463"/>
<path d="M11.16 5.46479L11.255 5.36979C11.5072 5.11767 11.7072 4.81834 11.8437 4.4889C11.9802 4.15947 12.0504 3.80637 12.0504 3.44978C12.0504 3.0932 11.9802 2.7401 11.8437 2.41067C11.7072 2.08123 11.5072 1.7819 11.255 1.52979C11.0029 1.27761 10.7036 1.07758 10.3741 0.941097C10.0447 0.80462 9.69159 0.734375 9.335 0.734375C8.97842 0.734375 8.62532 0.80462 8.29588 0.941097C7.96645 1.07758 7.66712 1.27761 7.415 1.52979L7.32 1.62479C6.71983 2.22545 5.92617 2.59394 5.08 2.66479C3.95805 2.75944 2.90587 3.24834 2.11 4.04479C1.67487 4.47972 1.32969 4.99612 1.09419 5.56449C0.858686 6.13286 0.737473 6.74206 0.737473 7.35729C0.737473 7.97251 0.858686 8.58171 1.09419 9.15008C1.32969 9.71845 1.67487 10.2349 2.11 10.6698C2.54493 11.1049 3.06134 11.4501 3.62971 11.6856C4.19807 11.9211 4.80728 12.0423 5.4225 12.0423C6.03773 12.0423 6.64693 11.9211 7.2153 11.6856C7.78367 11.4501 8.30007 11.1049 8.735 10.6698C9.53145 9.87392 10.0203 8.82173 10.115 7.69979C10.19 6.85979 10.56 6.06479 11.16 5.46479Z" fill="#C3EF3C"/>
<path d="M5.64501 9.34438C6.22318 9.34438 6.77768 9.1147 7.1865 8.70587C7.59533 8.29704 7.82501 7.74255 7.82501 7.16437C7.82501 6.5862 7.59533 6.03171 7.1865 5.62288C6.77768 5.21405 6.22318 4.98438 5.64501 4.98438C5.06684 4.98438 4.51235 5.21405 4.10352 5.62288C3.69469 6.03171 3.46501 6.5862 3.46501 7.16437C3.46501 7.74255 3.69469 8.29704 4.10352 8.70587C4.51235 9.1147 5.06684 9.34438 5.64501 9.34438Z" fill="#6D4534"/>
</svg>
